{
	"asset":{
		"generator":"Khronos glTF Blender I/O v5.2.40",
		"version":"2.0"
	},
	"scene":0,
	"scenes":[
		{
			"name":"Scene",
			"nodes":[
				0,
				1
			]
		}
	],
	"nodes":[
		{
			"mesh":0,
			"name":"Cube"
		},
		{
			"mesh":1,
			"name":"\u041e\u0431\u043e\u0431\u0449\u0435\u043d\u043d\u044b\u0435 \u043c\u043e\u0434\u0435\u043b\u0438 2 \u041e\u0431\u043e\u0431\u0449\u0435\u043d\u043d\u044b\u0435 \u043c\u043e\u0434\u0435\u043b\u0438 1 [335129]",
			"scale":[
				0.30480000376701355,
				0.30480000376701355,
				0.30480000376701355
			]
		}
	],
	"materials":[
		{
			"doubleSided":true,
			"name":"Material",
			"pbrMetallicRoughness":{
				"baseColorFactor":[
					0.800000011920929,
					0.800000011920929,
					0.800000011920929,
					1
				],
				"metallicFactor":0,
				"roughnessFactor":0.5
			}
		}
	],
	"meshes":[
		{
			"name":"Cube",
			"primitives":[
				{
					"attributes":{
						"POSITION":0,
						"NORMAL":1,
						"TEXCOORD_0":2
					},
					"indices":3,
					"material":0
				}
			]
		},
		{
			"name":"\u041e\u0431\u043e\u0431\u0449\u0435\u043d\u043d\u044b\u0435 \u043c\u043e\u0434\u0435\u043b\u0438 2 \u041e\u0431\u043e\u0431\u0449\u0435\u043d\u043d\u044b\u0435 \u043c\u043e\u0434\u0435\u043b\u0438 1 [335129]_[335127] Geometry",
			"primitives":[
				{
					"attributes":{
						"POSITION":4,
						"NORMAL":5,
						"TEXCOORD_0":6
					},
					"indices":7
				}
			]
		}
	],
	"accessors":[
		{
			"bufferView":0,
			"componentType":5126,
			"count":24,
			"max":[
				1,
				1,
				1
			],
			"min":[
				-1,
				-1,
				-1
			],
			"type":"VEC3"
		},
		{
			"bufferView":1,
			"componentType":5126,
			"count":24,
			"type":"VEC3"
		},
		{
			"bufferView":2,
			"componentType":5126,
			"count":24,
			"type":"VEC2"
		},
		{
			"bufferView":3,
			"componentType":5123,
			"count":36,
			"type":"SCALAR"
		},
		{
			"bufferView":4,
			"componentType":5126,
			"count":60976,
			"max":[
				-18.697002410888672,
				1.574803113937378,
				-3.344229221343994
			],
			"min":[
				-37.961185455322266,
				-0.32808399200439453,
				-19.256301879882812
			],
			"type":"VEC3"
		},
		{
			"bufferView":5,
			"componentType":5126,
			"count":60976,
			"type":"VEC3"
		},
		{
			"bufferView":6,
			"componentType":5126,
			"count":60976,
			"type":"VEC2"
		},
		{
			"bufferView":7,
			"componentType":5123,
			"count":204828,
			"type":"SCALAR"
		}
	],
	"bufferViews":[
		{
			"buffer":0,
			"byteLength":288,
			"byteOffset":0,
			"target":34962
		},
		{
			"buffer":0,
			"byteLength":288,
			"byteOffset":288,
			"target":34962
		},
		{
			"buffer":0,
			"byteLength":192,
			"byteOffset":576,
			"target":34962
		},
		{
			"buffer":0,
			"byteLength":72,
			"byteOffset":768,
			"target":34963
		},
		{
			"buffer":0,
			"byteLength":731712,
			"byteOffset":840,
			"target":34962
		},
		{
			"buffer":0,
			"byteLength":731712,
			"byteOffset":732552,
			"target":34962
		},
		{
			"buffer":0,
			"byteLength":487808,
			"byteOffset":1464264,
			"target":34962
		},
		{
			"buffer":0,
			"byteLength":409656,
			"byteOffset":1952072,
			"target":34963
		}
	],
	"buffers":[
		{
			"byteLength":2361728,
			"uri":"kokoshnik.bin"
		}
	]
}
